<?xml version="1.0" encoding="UTF-8"?>
<!DOCTYPE svg PUBLIC "-//W3C//DTD SVG 1.1//EN" "http://www.w3.org/Graphics/SVG/1.1/DTD/svg11.dtd">
<svg version="1.1" xmlns="http://www.w3.org/2000/svg" xmlns:xlink="http://www.w3.org/1999/xlink" x="0" y="0" width="48" height="48" viewBox="0, 0, 48, 48">
  <g id="Layer_1">
    <path d="M39.273,14.727 L30.545,23.455 L37.091,23.455 C37.091,30.676 31.222,36.545 24,36.545 C21.796,36.545 19.702,36 17.891,35.018 L14.705,38.204 C17.389,39.905 20.575,40.909 24,40.909 C33.644,40.909 41.455,33.098 41.455,23.455 L48,23.455 L39.273,14.727 z M10.909,23.455 C10.909,16.233 16.778,10.364 24,10.364 C26.204,10.364 28.298,10.909 30.109,11.891 L33.295,8.705 C30.611,7.004 27.425,6 24,6 C14.356,6 6.545,13.811 6.545,23.455 L0,23.455 L8.727,32.182 L17.455,23.455 L10.909,23.455 z" fill="#000000"/>
  </g>
</svg>
